<svg class="svg-icon" style="width:800px; height:800px;vertical-align: middle;fill: currentColor;overflow: hidden;" viewBox="0 0 1024 1024" version="1.1" xmlns="http://www.w3.org/2000/svg"><path d="M504.679 902.383c25.766 0 24.987-23.87 28.249-43.14 21.221 11.546 57.473 4.685 77.746-5.939 42.275-22.226 34.887-79.253 68.572-101.7-62.994 11.991-124.68 10.15-149.943 79.782-25.237-73.368 55.465-118.265 106.246-155.939 62.492-46.431 120.691-121.138 126.49-201.673 12.438-173.757-127.857-299.217-257.36-390.237-129.587 91.02-269.882 216.48-257.445 390.237 5.8 80.535 63.943 155.242 126.547 201.673 38.427 28.556 108.059 70.719 107.222 125.042-0.363 24.733-23.033 101.894 23.676 101.894z" fill="#C8D62C" /><path d="M659.113 494.158a15.38 15.38 0 0 0-20.943-5.911l-118.127 67.095v-154.1l108.951-78.081c6.916-4.991 8.563-14.584 3.598-21.639-4.881-6.916-14.557-8.589-21.471-3.653l-91.078 65.336V251.104c0-8.561-6.859-15.504-15.364-15.504-8.533 0-15.365 6.943-15.365 15.504v112.102l-91.16-65.309c-7.027-4.963-16.564-3.291-21.584 3.653-4.852 6.999-3.207 16.62 3.709 21.611l109.035 78.053v154.181l-118.209-67.12c-7.391-4.212-16.788-1.59-20.971 5.883-4.183 7.502-1.506 16.955 5.884 21.193l133.296 75.655v104.656c0 8.533 6.832 15.478 15.365 15.478 8.504 0 15.364-6.944 15.364-15.478V591.007l133.213-75.655c7.363-4.239 10.012-13.776 5.857-21.194z" fill="#644326" /></svg>